<svg width="100%" height="100%" viewBox="0 0 469 469" version="1.1" xmlns="http://www.w3.org/2000/svg"
    xmlns:xlink="http://www.w3.org/1999/xlink" xml:space="preserve" xmlns:serif="http://www.serif.com/"
    style="fill-rule:evenodd;clip-rule:evenodd;stroke-linejoin:round;stroke-miterlimit:2;">
    <g transform="matrix(0,-4.16667,-4.16667,0,234.467,19.2754)">
        <path
            d="M-51.646,-51.646C-80.169,-51.646 -103.292,-28.523 -103.292,0C-103.292,28.523 -80.169,51.646 -51.646,51.646C-23.123,51.646 0,28.523 0,0C0,-28.523 -23.123,-51.646 -51.646,-51.646"
            style="fill:white;fill-rule:nonzero;" />
    </g>
    <g transform="matrix(4.16667,0,0,4.16667,299.818,227.228)">
        <path
            d="M0,12.921C-5.302,12.921 -7.82,11.62 -8.731,8.65L-8.733,8.655C-8.733,8.655 -9.806,5.266 -14.989,4.973C-14.989,4.973 -15.139,4.968 -15.388,4.984C-15.637,4.968 -15.787,4.973 -15.787,4.973C-20.97,5.266 -22.043,8.655 -22.043,8.655L-22.045,8.65C-22.956,11.62 -25.474,12.921 -30.776,12.921L-37.343,12.921C-42.944,12.921 -44.774,10.767 -44.774,6.783L-44.774,0L13.998,0L13.998,6.783C13.998,10.767 12.168,12.921 6.567,12.921L0,12.921ZM-15.287,15.935C-12.813,22.288 -7.215,24.764 0.753,24.764L6.891,24.764C18.518,24.764 24.764,18.627 24.764,6.783L24.764,-11.843L-55.54,-11.843L-55.54,6.783C-55.54,18.627 -49.294,24.764 -37.667,24.764L-31.529,24.764C-23.561,24.764 -17.963,22.288 -15.489,15.935L-15.287,15.935Z"
            style="fill:rgb(35,31,32);fill-rule:nonzero;" />
    </g>
    <g transform="matrix(4.16667,0,0,4.16667,397.375,285.42)">
        <path
            d="M0,-24.459L0,-7.182C0,3.853 -5.559,9.448 -16.522,9.448L-22.661,9.448C-30.627,9.448 -35.324,6.916 -37.443,1.479L-37.922,0.619L-38.845,0.619L-39.621,0.772L-40.027,1.283L-40.222,1.619C-42.369,6.961 -47.046,9.448 -54.943,9.448L-61.08,9.448C-72.044,9.448 -77.604,3.853 -77.604,-7.182L-77.604,-24.459L0,-24.459ZM-39.099,-61.148C-66.072,-61.148 -88.017,-39.203 -88.017,-12.23C-88.017,14.744 -66.072,36.689 -39.099,36.689C-12.125,36.689 9.821,14.744 9.821,-12.23C9.821,-39.203 -12.125,-61.148 -39.099,-61.148"
            style="fill:rgb(215,56,39);fill-rule:nonzero;" />
    </g>
    <g transform="matrix(4.16667,0,0,4.16667,234.467,429.538)">
        <path
            d="M0,-93.635C-25.816,-93.635 -46.818,-72.634 -46.818,-46.818C-46.818,-21.003 -25.816,0 0,0C25.816,0 46.818,-21.003 46.818,-46.818C46.818,-72.634 25.816,-93.635 0,-93.635M0,9.454C-31.029,9.454 -56.272,-15.789 -56.272,-46.818C-56.272,-77.846 -31.029,-103.089 0,-103.089C31.029,-103.089 56.272,-77.846 56.272,-46.818C56.272,-15.789 31.029,9.454 0,9.454"
            style="fill:rgb(35,31,32);fill-rule:nonzero;" />
    </g>
</svg>