<svg height="136.34911mm" viewBox="0 0 216.78116 136.34911" width="216.78116mm" xmlns="http://www.w3.org/2000/svg"
    xmlns:xlink="http://www.w3.org/1999/xlink">
    <clipPath id="a">
        <path d="m0 0h778.44v563.391h-778.44z" />
    </clipPath>
    <clipPath id="b">
        <path d="m273.316 242.517h231.381v231.38h-231.381z" />
    </clipPath>
    <g transform="matrix(.35277777 0 0 -.35277777 -28.842193 158.685932)">
        <g clip-path="url(#a)" fill="#5f6368">
            <path
                d="m0 0 24.292 10.087c-.687 1.714-1.956 3.104-3.809 4.169-1.853 1.063-3.946 1.595-6.279 1.595-3.499 0-6.777-1.441-9.83-4.322-3.054-2.883-4.512-6.727-4.374-11.529m15.131-27.998c-7.686 0-14.102 2.608-19.248 7.823-5.147 5.214-7.72 11.665-7.72 19.352 0 7.958 2.487 14.477 7.462 19.556 4.975 5.077 11.03 7.617 18.167 7.617 3.294 0 6.347-.601 9.162-1.801 2.813-1.201 5.146-2.746 6.999-4.632 1.853-1.888 3.328-3.723 4.426-5.507 1.097-1.785 1.989-3.569 2.676-5.352l1.236-3.088-36.336-15.028c2.813-5.491 7.206-8.234 13.176-8.234 5.489 0 9.949 2.503 13.381 7.514l9.263-6.177c-2.058-3.087-4.975-5.867-8.748-8.337-3.776-2.47-8.407-3.706-13.896-3.706m-32.732 1.648h-11.94v79.875h11.94zm-45.187 9.058c4.117 0 7.566 1.559 10.345 4.683 2.779 3.121 4.168 7.015 4.168 11.683 0 4.734-1.389 8.679-4.168 11.837-2.779 3.155-6.228 4.734-10.345 4.734-4.186 0-7.755-1.579-10.704-4.734-2.952-3.158-4.426-7.103-4.426-11.837 0-4.668 1.474-8.562 4.426-11.683 2.949-3.124 6.518-4.683 10.704-4.683m-.824-35.1c-6.038 0-11.116 1.613-15.233 4.837-4.117 3.227-7.069 6.966-8.853 11.221l10.397 4.322c1.097-2.607 2.813-4.872 5.146-6.793 2.332-1.92 5.181-2.883 8.543-2.883 4.53 0 8.081 1.374 10.654 4.118 2.573 2.745 3.86 6.691 3.86 11.837v3.911h-.412c-3.363-4.117-8.131-6.176-14.308-6.176-6.931 0-13.004 2.642-18.218 7.926-5.216 5.283-7.823 11.666-7.823 19.146 0 7.547 2.607 13.98 7.823 19.3 5.214 5.316 11.287 7.976 18.218 7.976 3.089 0 5.884-.583 8.39-1.749 2.503-1.169 4.477-2.609 5.918-4.324h.412v4.426h11.322v-48.789c0-9.469-2.419-16.554-7.256-21.256-4.838-4.699-11.031-7.05-18.58-7.05m-69.272 39.783c3.019-3.124 6.621-4.683 10.808-4.683 4.184 0 7.788 1.559 10.808 4.683 3.019 3.121 4.528 7.051 4.528 11.786 0 4.802-1.492 8.749-4.477 11.836-2.985 3.089-6.605 4.632-10.859 4.632-4.256 0-7.875-1.543-10.86-4.632-2.984-3.087-4.477-7.034-4.477-11.836 0-4.735 1.509-8.665 4.529-11.786m30.159-7.617c-5.285-5.182-11.734-7.772-19.351-7.772s-14.068 2.59-19.351 7.772c-5.285 5.18-7.926 11.648-7.926 19.403 0 7.753 2.641 14.22 7.926 19.402 5.283 5.181 11.734 7.771 19.351 7.771s14.066-2.59 19.351-7.771c5.283-5.182 7.926-11.649 7.926-19.402 0-7.755-2.643-14.223-7.926-19.403m-89.653 7.617c3.019-3.124 6.621-4.683 10.808-4.683 4.184 0 7.787 1.559 10.807 4.683 3.019 3.121 4.53 7.051 4.53 11.786 0 4.802-1.493 8.749-4.478 11.836-2.985 3.089-6.605 4.632-10.859 4.632-4.256 0-7.875-1.543-10.86-4.632-2.985-3.087-4.476-7.034-4.476-11.836 0-4.735 1.508-8.665 4.528-11.786m30.159-7.617c-5.285-5.182-11.735-7.772-19.351-7.772-7.617 0-14.068 2.59-19.352 7.772-5.284 5.18-7.925 11.648-7.925 19.403 0 7.753 2.641 14.22 7.925 19.402 5.284 5.181 11.735 7.771 19.352 7.771 7.616 0 14.066-2.59 19.351-7.771 5.283-5.182 7.926-11.649 7.926-19.402 0-7.755-2.643-14.223-7.926-19.403m-90.168-7.772c-11.666 0-21.718 4.134-30.159 12.404-8.44 8.268-12.66 18.201-12.66 29.798s4.22 21.529 12.66 29.799c8.441 8.268 18.493 12.403 30.159 12.403 11.185 0 20.826-3.877 28.924-11.631l-8.132-8.131c-5.833 5.488-12.763 8.234-20.792 8.234-8.44 0-15.594-2.985-21.461-8.955s-8.8-13.211-8.8-21.719c0-8.509 2.933-15.748 8.8-21.718s13.021-8.955 21.461-8.955c8.577 0 15.679 2.813 21.307 8.44 3.362 3.362 5.455 8.199 6.279 14.514h-27.586v11.527h38.805c.412-2.057.618-4.46.618-7.205 0-11.322-3.329-20.312-9.984-26.968-7.55-7.891-17.362-11.837-29.439-11.837"
                transform="translate(376.9634 115.709)" />
            <path
                d="m0 0c-10.843 0-19.935 3.67-27.277 11.013-7.343 7.343-11.014 16.503-11.014 27.484 0 10.978 3.671 20.139 11.014 27.482 7.342 7.342 16.434 11.013 27.277 11.013 11.116 0 20.138-4.014 27.071-12.043l-6.588-6.381c-5.01 6.244-11.837 9.366-20.483 9.366-8.029 0-14.806-2.711-20.329-8.131-5.525-5.421-8.286-12.524-8.286-21.306 0-8.785 2.761-15.887 8.286-21.307 5.523-5.422 12.3-8.132 20.329-8.132 8.852 0 16.399 3.567 22.645 10.705l6.587-6.587c-3.363-4.05-7.583-7.257-12.66-9.624-5.08-2.368-10.602-3.552-16.572-3.552"
                transform="translate(477.9388 87.7114)" />
            <path d="m525.079 89.359h-9.47v73.698h9.47z" />
            <path
                d="m0 0c3.259-3.329 7.119-4.992 11.58-4.992 4.459 0 8.319 1.663 11.58 4.992 3.258 3.328 4.889 7.736 4.889 13.227 0 5.489-1.631 9.897-4.889 13.227-3.261 3.327-7.121 4.992-11.58 4.992-4.461 0-8.321-1.665-11.58-4.992-3.26-3.33-4.889-7.738-4.889-13.227 0-5.491 1.629-9.899 4.889-13.227m-7.051 32.424c4.872 5.111 11.081 7.668 18.631 7.668 7.547 0 13.757-2.557 18.63-7.668 4.872-5.113 7.309-11.513 7.309-19.197 0-7.686-2.437-14.085-7.309-19.197-4.873-5.113-11.083-7.668-18.63-7.668-7.55 0-13.759 2.555-18.631 7.668-4.872 5.112-7.307 11.511-7.307 19.197 0 7.684 2.435 14.084 7.307 19.197"
                transform="translate(547.5704 101.3496)" />
            <path
                d="m0 0h-9.058v6.999h-.412c-1.441-2.403-3.638-4.444-6.587-6.124-2.951-1.681-6.073-2.522-9.367-2.522-6.314 0-11.1 1.921-14.359 5.764-3.26 3.842-4.889 8.989-4.889 15.44v30.879h9.47v-29.335c0-9.402 4.151-14.102 12.454-14.102 3.912 0 7.102 1.578 9.573 4.735 2.47 3.156 3.705 6.794 3.705 10.911v27.791h9.47z"
                transform="translate(637.4815 89.3586)" />
            <path
                d="m0 0c4.46 0 8.251 1.647 11.374 4.941 3.122 3.293 4.683 7.719 4.683 13.278 0 5.558-1.561 9.984-4.683 13.279-3.123 3.293-6.914 4.94-11.374 4.94-4.392 0-8.167-1.665-11.323-4.992-3.156-3.33-4.734-7.738-4.734-13.227 0-5.491 1.578-9.899 4.734-13.227 3.156-3.329 6.931-4.992 11.323-4.992m-1.544-8.646c-6.52 0-12.146 2.573-16.881 7.72-4.735 5.146-7.102 11.528-7.102 19.145s2.367 13.999 7.102 19.145c4.735 5.147 10.361 7.72 16.881 7.72 3.842 0 7.29-.824 10.345-2.47 3.052-1.648 5.334-3.706 6.845-6.176h.411l-.411 6.999v23.262h9.469v-73.698h-9.058v6.999h-.411c-1.511-2.47-3.793-4.529-6.845-6.176-3.055-1.647-6.503-2.47-10.345-2.47"
                transform="translate(671.1402 96.3577)" />
        </g>
        <g clip-path="url(#b)">
            <path
                d="m0 0 7.102-.134 19.298 19.298.935 8.171c-15.333 13.639-35.507 21.947-57.594 21.947-39.991 0-73.732-27.203-83.736-64.072 2.112 1.46 6.605.373 6.605.373l38.567 6.336s1.995 3.279 2.981 3.077c8.821 9.655 21.506 15.723 35.583 15.723 11.453 0 21.98-4.022 30.259-10.719"
                fill="#ea4335" transform="translate(419.2654 400.5364)" />
            <path
                d="m0 0c-4.476 16.534-13.723 31.121-26.174 42.189l-27.336-27.335c10.946-8.844 17.964-22.366 17.964-37.501v-4.82c13.29 0 24.102-10.812 24.102-24.102 0-13.291-10.812-24.102-24.107-24.102h-48.199l-4.824-4.846v-28.923l4.824-4.795h48.204c34.554 0 62.666 28.112 62.666 62.666 0 21.361-10.752 40.251-27.12 51.569"
                fill="#4285f4" transform="translate(472.7564 385.6973)" />
            <path
                d="m0 0h48.167v38.563h-48.161c-3.542 0-6.897.788-9.93 2.166l-6.947-2.124-19.307-19.306-1.691-6.515c10.527-8.013 23.649-12.783 37.869-12.784"
                fill="#34a853" transform="translate(340.8001 271.4624)" />
            <path
                d="m0 0c-34.554 0-62.666-28.112-62.666-62.666 0-20.345 9.752-38.449 24.821-49.905l27.951 27.952c-8.364 3.785-14.208 12.191-14.208 21.953 0 13.291 10.812 24.103 24.102 24.103 9.762 0 18.169-5.844 21.954-14.209l27.951 27.951c-11.455 15.069-29.56 24.821-49.905 24.821"
                fill="#fbbc05" transform="translate(340.8023 396.7935)" />
        </g>
    </g>
</svg>